<svg width="15" height="14" viewBox="0 0 15 14" fill="none" xmlns="http://www.w3.org/2000/svg">
<path d="M13.3157 10.6923C13.3157 10.9023 13.269 11.1182 13.1698 11.3282C13.0707 11.5382 12.9423 11.7365 12.7732 11.9232C12.4873 12.2382 12.1723 12.4657 11.8165 12.6115C11.4665 12.7573 11.0873 12.8332 10.679 12.8332C10.084 12.8332 9.44817 12.6932 8.77734 12.4073C8.1065 12.1215 7.43567 11.7365 6.77067 11.2523C6.09984 10.7623 5.464 10.2198 4.85734 9.619C4.2565 9.01234 3.714 8.3765 3.22984 7.7115C2.7515 7.0465 2.3665 6.3815 2.0865 5.72234C1.8065 5.05734 1.6665 4.4215 1.6665 3.81484C1.6665 3.41817 1.7365 3.039 1.8765 2.689C2.0165 2.33317 2.23817 2.0065 2.54734 1.71484C2.92067 1.34734 3.329 1.1665 3.76067 1.1665C3.924 1.1665 4.08734 1.2015 4.23317 1.2715C4.38484 1.3415 4.519 1.4465 4.624 1.59817L5.97734 3.50567C6.08234 3.6515 6.15817 3.78567 6.21067 3.914C6.26317 4.0365 6.29234 4.159 6.29234 4.26984C6.29234 4.40984 6.2515 4.54984 6.16984 4.684C6.094 4.81817 5.98317 4.95817 5.84317 5.09817L5.39984 5.559C5.33567 5.62317 5.3065 5.699 5.3065 5.79234C5.3065 5.839 5.31234 5.87984 5.324 5.9265C5.3415 5.97317 5.359 6.00817 5.37067 6.04317C5.47567 6.23567 5.6565 6.4865 5.91317 6.78984C6.17567 7.09317 6.45567 7.40234 6.759 7.7115C7.074 8.02067 7.37734 8.3065 7.6865 8.569C7.98984 8.82567 8.24067 9.00067 8.439 9.10567C8.46817 9.11734 8.50317 9.13484 8.544 9.15234C8.59067 9.16984 8.63734 9.17567 8.68984 9.17567C8.789 9.17567 8.86484 9.14067 8.929 9.0765L9.37234 8.639C9.51817 8.49317 9.65817 8.38234 9.79234 8.31234C9.9265 8.23067 10.0607 8.18984 10.2065 8.18984C10.3173 8.18984 10.434 8.21317 10.5623 8.26567C10.6907 8.31817 10.8248 8.394 10.9707 8.49317L12.9015 9.864C13.0532 9.969 13.1582 10.0915 13.2223 10.2373C13.2807 10.3832 13.3157 10.529 13.3157 10.6923Z" stroke="white" stroke-width="1.5" stroke-miterlimit="10"/>
<path d="M11.2917 5.24967C11.2917 4.89967 11.0175 4.36301 10.6092 3.92551C10.2358 3.52301 9.74 3.20801 9.25 3.20801" stroke="white" stroke-width="1.5" stroke-linecap="round" stroke-linejoin="round"/>
<path d="M13.3333 5.24984C13.3333 2.99234 11.5075 1.1665 9.25 1.1665" stroke="white" stroke-width="1.5" stroke-linecap="round" stroke-linejoin="round"/>
</svg>
