<svg width="20" height="20" viewBox="0 0 20 20" fill="none" xmlns="http://www.w3.org/2000/svg">
<path fill-rule="evenodd" clip-rule="evenodd" d="M7.29279 5.29308C7.10532 5.48061 7 5.73492 7 6.00008C7 6.26525 7.10532 6.51955 7.29279 6.70708L10.5858 10.0001L7.29279 13.2931C7.11063 13.4817 7.00983 13.7343 7.01211 13.9965C7.01439 14.2587 7.11956 14.5095 7.30497 14.6949C7.49038 14.8803 7.74119 14.9855 8.00339 14.9878C8.26558 14.99 8.51818 14.8892 8.70679 14.7071L12.7068 10.7071C12.8943 10.5196 12.9996 10.2652 12.9996 10.0001C12.9996 9.73492 12.8943 9.48061 12.7068 9.29308L8.70679 5.29308C8.51926 5.10561 8.26495 5.00029 7.99979 5.00029C7.73462 5.00029 7.48031 5.10561 7.29279 5.29308Z" fill="black"/>
</svg>
