<svg width="31" height="25" viewBox="0 0 31 25" fill="none" xmlns="http://www.w3.org/2000/svg">
<path d="M29.7833 10.5522H1.20696C0.538197 10.5522 -0.00390625 11.0943 -0.00390625 11.7631C-0.00390625 12.4319 0.538197 12.974 1.20696 12.974H29.7833C30.452 12.974 30.9942 12.4319 30.9942 11.7631C30.9942 11.0943 30.452 10.5522 29.7833 10.5522Z" fill="#282828"/>
<path d="M29.7833 0.865234H1.20696C0.538197 0.865234 -0.00390625 1.40734 -0.00390625 2.0761C-0.00390625 2.74485 0.538197 3.28696 1.20696 3.28696H29.7833C30.452 3.28696 30.9942 2.74485 30.9942 2.0761C30.9942 1.40734 30.452 0.865234 29.7833 0.865234Z" fill="#282828"/>
<path d="M0 23.6474H1.00245V17.7132L0 17.6211V17.3843L1.42517 17.1869V18.358H1.4614C1.56608 18.0422 1.76335 17.7615 2.05321 17.5159C2.35113 17.2615 2.76982 17.1343 3.30929 17.1343C3.81656 17.1343 4.22317 17.2527 4.52914 17.4895C4.84316 17.7264 5.06459 18.0992 5.19342 18.608H5.22965C5.35043 18.1957 5.57185 17.8492 5.89392 17.5685C6.216 17.279 6.65079 17.1343 7.19832 17.1343C7.89883 17.1343 8.41011 17.3448 8.73219 17.7659C9.06231 18.1869 9.22737 18.8229 9.22737 19.6738V23.6474H10.2298V23.9764H7.8022V23.6474H8.80465V19.7264C8.80465 18.9545 8.65972 18.3887 8.36986 18.029C8.07999 17.6694 7.64922 17.4895 7.07754 17.4895C6.84404 17.4895 6.62261 17.5246 6.41327 17.5948C6.20392 17.665 6.01873 17.7702 5.85769 17.9106C5.69666 18.0509 5.56783 18.2264 5.4712 18.4369C5.37458 18.6474 5.32627 18.8974 5.32627 19.1869V23.6474H6.32872V23.9764H3.9011V23.6474H4.90355V19.7264C4.90355 18.9545 4.75862 18.3887 4.46875 18.029C4.18694 17.6694 3.76019 17.4895 3.18852 17.4895C2.95501 17.4895 2.72956 17.5246 2.51216 17.5948C2.30282 17.665 2.11763 17.7702 1.95659 17.9106C1.79555 18.0509 1.66672 18.2264 1.5701 18.4369C1.47348 18.6474 1.42517 18.8974 1.42517 19.1869V23.6474H2.42762V23.9764H0V23.6474Z" fill="#282828"/>
<path d="M13.9247 24.1343C13.5301 24.1343 13.1718 24.0641 12.8497 23.9238C12.5277 23.7746 12.2499 23.5553 12.0164 23.2659C11.7829 22.9676 11.6017 22.5992 11.4729 22.1606C11.3441 21.722 11.2796 21.2132 11.2796 20.6343C11.2796 20.0816 11.3441 19.5904 11.4729 19.1606C11.6017 18.722 11.7829 18.3536 12.0164 18.0553C12.2499 17.7571 12.5277 17.529 12.8497 17.3711C13.1799 17.2132 13.5422 17.1343 13.9367 17.1343C14.3071 17.1343 14.6413 17.2132 14.9392 17.3711C15.2371 17.5202 15.4907 17.7352 15.7001 18.0159C15.9094 18.2878 16.0705 18.6123 16.1832 18.9895C16.2959 19.3667 16.3523 19.7834 16.3523 20.2395V20.3974H11.7507V20.8974C11.7507 21.8448 11.956 22.5597 12.3666 23.0422C12.7773 23.5159 13.3087 23.7527 13.9609 23.7527C14.2266 23.7527 14.4641 23.7176 14.6735 23.6474C14.8828 23.5685 15.072 23.4676 15.2411 23.3448C15.4102 23.222 15.5552 23.0773 15.6759 22.9106C15.8048 22.7439 15.9135 22.5729 16.002 22.3974L16.2194 22.5553C16.1309 22.7395 16.0181 22.9281 15.8813 23.1211C15.7524 23.3053 15.5914 23.472 15.3981 23.6211C15.2129 23.7702 14.9956 23.893 14.7459 23.9895C14.5044 24.086 14.2306 24.1343 13.9247 24.1343ZM15.8933 20.0948V20.0685C15.8933 19.6913 15.849 19.3448 15.7605 19.029C15.6719 18.7045 15.5431 18.4281 15.374 18.2001C15.213 17.9632 15.0117 17.779 14.7701 17.6474C14.5285 17.5159 14.2508 17.4501 13.9367 17.4501C13.6066 17.4501 13.3087 17.5159 13.043 17.6474C12.7773 17.7702 12.5478 17.9501 12.3546 18.1869C12.1613 18.415 12.0124 18.6913 11.9077 19.0159C11.803 19.3404 11.7507 19.7001 11.7507 20.0948H15.8933Z" fill="#282828"/>
<path d="M17.5386 23.6474H18.5411V17.7132L17.5386 17.6211V17.3843L18.9638 17.1869V18.358H19C19.0483 18.2001 19.1208 18.0466 19.2174 17.8974C19.3221 17.7483 19.4509 17.6211 19.6039 17.5159C19.7569 17.4018 19.9381 17.3097 20.1474 17.2395C20.3568 17.1694 20.5983 17.1343 20.8721 17.1343C22.2409 17.1343 22.9253 17.9764 22.9253 19.6606V23.6474H23.9277V23.9764H21.5001V23.6474H22.5026V19.7264C22.5026 18.9545 22.3536 18.3887 22.0557 18.029C21.7658 17.6694 21.331 17.4895 20.7513 17.4895C20.5178 17.4895 20.2924 17.5246 20.075 17.5948C19.8656 17.665 19.6764 17.7702 19.5073 17.9106C19.3463 18.0509 19.2134 18.2264 19.1087 18.4369C19.0121 18.6474 18.9638 18.8974 18.9638 19.1869V23.6474H19.9663V23.9764H17.5386V23.6474Z" fill="#282828"/>
<path d="M27.6666 24.1343C26.958 24.1343 26.4386 23.9238 26.1085 23.5027C25.7784 23.0816 25.6133 22.4457 25.6133 21.5948V17.7132L24.6109 17.6211V17.3843L26.0361 17.1869V21.5422C26.0361 22.3141 26.181 22.8799 26.4709 23.2395C26.7688 23.5992 27.2076 23.779 27.7873 23.779C28.0208 23.779 28.2423 23.7439 28.4516 23.6738C28.669 23.6036 28.8582 23.4983 29.0193 23.358C29.1883 23.2176 29.3212 23.0422 29.4178 22.8316C29.5225 22.6211 29.5748 22.3711 29.5748 22.0816V17.7132L28.5724 17.6211V17.3843L29.9976 17.1869V23.5553L31 23.6474V23.8843L29.5748 24.0816V22.8974H29.5386C29.4259 23.222 29.2206 23.5115 28.9226 23.7659C28.6247 24.0115 28.206 24.1343 27.6666 24.1343Z" fill="#282828"/>
</svg>
