<svg width="24" height="23" viewBox="0 0 24 23" fill="none" xmlns="http://www.w3.org/2000/svg">
<path d="M16.1878 5.5775C15.5327 4.82964 15.1717 3.86921 15.1719 2.875H12.2107V14.7583C12.1879 15.4014 11.9164 16.0105 11.4534 16.4574C10.9904 16.9043 10.3721 17.1541 9.72861 17.1542C8.36778 17.1542 7.23695 16.0425 7.23695 14.6625C7.23695 13.0142 8.82778 11.7779 10.4665 12.2858V9.2575C7.16028 8.81667 4.26611 11.385 4.26611 14.6625C4.26611 17.8538 6.91111 20.125 9.71903 20.125C12.7282 20.125 15.1719 17.6812 15.1719 14.6625V8.63458C16.3727 9.49694 17.8144 9.95962 19.2928 9.95708V6.99583C19.2928 6.99583 17.4911 7.08208 16.1878 5.5775Z" fill="white"/>
</svg>
