<svg width="16" height="17" viewBox="0 0 16 17" fill="none" xmlns="http://www.w3.org/2000/svg">
<path d="M7.99658 0.730957C3.58531 0.730957 -0.00341797 4.31969 -0.00341797 8.73096C-0.00341797 13.1422 3.58558 16.731 7.99658 16.731C12.4076 16.731 15.9966 13.1422 15.9966 8.73096C15.9966 4.31969 12.4079 0.730957 7.99658 0.730957Z" fill="#008C56"/>
<path d="M11.5315 5.43226C11.7021 5.6419 11.8765 5.86489 12.0517 6.09777C12.0886 6.5726 12.0984 7.00764 12.1358 7.48327C12.1305 7.68676 12.068 7.95676 12.0087 7.9824C12.0087 7.9824 11.9182 8.03447 11.8576 7.97679C11.8135 7.95916 11.6375 7.68329 11.6375 7.68329C11.5475 7.60077 11.4874 7.62427 11.4233 7.68329C11.2465 7.85394 11.1667 8.17361 11.0465 8.39367C11.0155 8.44281 10.9282 8.48473 10.8312 8.38993C10.6293 8.11432 10.6897 7.74338 10.7012 7.68596L10.6985 7.69745C10.4793 7.94474 10.5762 8.35414 10.6259 8.44227C10.6983 8.58702 10.7567 8.67969 10.8975 8.75099C11.0257 8.84526 11.1255 8.78651 11.1806 8.72028C11.3095 8.58675 11.3111 8.24492 11.3718 8.17708C11.4142 8.0529 11.5205 8.07427 11.5726 8.12928C11.6228 8.20165 11.6824 8.24865 11.7563 8.28791C11.8765 8.39393 12.0202 8.41343 12.1617 8.31649C12.2584 8.26227 12.3212 8.19177 12.3778 8.05263C12.4384 7.89026 12.4085 7.03861 12.3949 6.56485C12.4857 6.69277 12.5754 6.82363 12.6646 6.95583C12.7039 7.37163 12.7215 7.7813 12.7087 8.17388C12.6993 8.25186 12.9811 7.94074 12.9792 7.79332C12.9779 7.66433 12.9795 7.54736 12.9792 7.43867C13.1162 7.65673 13.2475 7.87829 13.3731 8.10311C13.4506 8.06198 13.4241 7.62347 13.375 7.56285C13.2441 7.34333 13.0764 7.10591 12.9466 6.92218C12.921 6.69037 12.886 6.4169 12.8702 6.33331C12.8454 6.20272 12.8206 6.00643 12.7832 5.85154C12.773 5.79092 12.7418 5.59757 12.7517 5.57914C12.7669 5.53588 12.8246 5.58047 12.8531 5.53027C12.8956 5.4838 12.7057 4.99188 12.6093 4.85141C12.5746 4.78838 12.5118 4.81028 12.4344 4.91256C12.3626 4.97986 12.3887 5.13369 12.4162 5.27977C12.4875 5.65231 12.5514 6.03154 12.6018 6.40996C12.5084 6.27109 12.3946 6.10337 12.2824 5.94154L12.268 5.86783C12.268 5.86115 12.2525 5.56312 12.2394 5.49208C12.237 5.46324 12.2304 5.45496 12.2605 5.4587C12.2926 5.48567 12.2969 5.487 12.3169 5.49608C12.3492 5.50196 12.3775 5.44721 12.358 5.39674L12.0578 4.84206C12.0458 4.83031 12.0322 4.81776 12.0167 4.81535C12.0012 4.81295 11.9841 4.82069 11.9652 4.84874C11.9417 4.86919 11.9228 4.89447 11.91 4.92286C11.8971 4.95125 11.8905 4.98208 11.8907 5.01324C11.8995 5.14437 11.923 5.2787 11.9318 5.41009L11.9414 5.4627C11.9308 5.44914 11.9197 5.43605 11.908 5.42344C11.6522 5.15478 12.0255 5.37965 11.8592 5.17188C11.7184 5.01752 11.6773 4.96838 11.5571 4.87544C11.4968 4.83645 11.4602 4.76194 11.4404 4.88879C11.4327 5.00042 11.4244 5.12941 11.4319 5.22342C11.4305 5.27603 11.4847 5.37431 11.5315 5.43226ZM5.2313 7.40635C5.22836 7.45496 5.36536 7.51398 5.37364 7.62614C5.39314 7.67234 5.34426 7.82083 5.38512 7.83445C5.42251 7.84994 5.47459 7.7319 5.49408 7.62214C5.50503 7.56205 5.44708 7.35187 5.3488 7.31422C5.33347 7.31082 5.31775 7.30957 5.30207 7.31048C5.25453 7.31395 5.21207 7.33932 5.2313 7.40635Z" fill="white"/>
<path d="M11.9461 6.59186C11.9425 6.5913 11.9388 6.59167 11.9354 6.59293C11.9354 6.59293 11.3522 7.00767 11.3378 7.02236C11.2798 7.07364 11.3089 7.25443 11.3378 7.2336C11.3797 7.24963 11.9667 6.85171 11.9555 6.80524C11.9811 6.80658 11.9936 6.60041 11.9461 6.59186ZM13.0183 5.64621C13.0389 5.70923 12.9871 5.91246 13.0298 5.93116C13.0691 5.95226 13.1241 5.79069 13.1447 5.6414C13.1559 5.55968 13.0955 5.27286 12.9927 5.22159C12.9846 5.21941 12.9763 5.21815 12.9679 5.21785C12.9091 5.21571 12.845 5.26031 12.8704 5.3479C12.8554 5.39571 12.9956 5.55754 13.0183 5.64621ZM11.6179 6.59667C11.62 6.47836 11.6315 6.3208 11.6379 6.22279C11.6406 6.18593 11.6494 6.14507 11.6847 6.13573C11.7202 6.12638 11.7816 6.17124 11.7821 6.13279C11.7757 6.05748 11.7605 5.94638 11.718 5.89377C11.7074 5.87839 11.6933 5.86572 11.6769 5.85676C11.6605 5.84781 11.6422 5.84284 11.6235 5.84223C11.5618 5.83929 11.4959 5.87935 11.479 5.96374C11.4793 6.01341 11.5015 6.04092 11.4972 6.08605C11.4908 6.11196 11.4641 6.12878 11.4005 6.09861C11.4104 6.08953 11.3594 6.01742 11.3594 6.01742C11.31 5.98724 11.2437 6.01902 11.2008 6.04706C11.1853 6.07642 11.1761 6.10863 11.1736 6.14171C11.1711 6.17478 11.1754 6.20802 11.1863 6.23935C11.2576 6.37047 11.5015 6.59453 11.6179 6.59667ZM9.13772 7.36927L9.13879 7.3682L9.13986 7.36713L9.14093 7.36606V7.36419C9.14116 7.36095 9.1408 7.35769 9.13986 7.35458L9.08431 7.322L7.99151 7.31719C7.98094 7.31359 7.97095 7.30847 7.96187 7.30197L7.96 7.3001L7.9592 7.29903L7.95813 7.29796L7.95733 7.29609L7.95626 7.29503V7.29396L7.95519 7.29289V7.28434L7.95626 7.28328L7.95733 7.28141C7.96267 7.2742 7.97549 7.26752 7.99178 7.26138C8.25269 7.22586 8.71631 7.14975 8.74702 6.70403C8.74221 6.47169 8.64767 6.31973 8.36272 6.27753C8.15335 6.29382 8.00406 6.49625 8.0281 6.71925C8.01822 6.77934 8.04839 6.89711 7.98697 6.91046C7.58532 6.94705 7.14681 7.19889 7.13212 7.37888H7.13105L7.12998 7.37995L7.12811 7.38102H7.12624L7.1233 7.38209H7.1177C7.11644 7.38177 7.11519 7.38141 7.11396 7.38102C7.08779 7.37381 7.05414 7.33054 7.05948 7.27019C7.04426 6.9588 6.94277 6.60655 6.78414 6.33522C6.72752 6.2786 6.70269 6.25564 6.68666 6.25296H6.67892C6.67732 6.2535 6.67571 6.25483 6.67411 6.2559L6.67117 6.25777C6.65889 6.26712 6.64447 6.28822 6.61189 6.31118C6.55714 6.37341 6.54726 6.41694 6.55073 6.54166C6.55394 6.55474 6.65462 6.83515 6.74008 7.03224C6.79776 7.23707 6.8509 7.47155 6.81191 7.69294C6.67705 7.98564 6.40599 8.24816 6.14454 8.39103C6.01127 8.43376 5.89617 8.41907 5.86546 8.38997L5.86439 8.3889C5.83912 8.37139 5.81897 8.34746 5.80602 8.31958C5.79306 8.2917 5.78777 8.26087 5.79068 8.23026V8.2292L5.79175 8.22813C6.01234 8.0743 6.26471 7.94985 6.46207 7.53484C6.52029 7.37621 6.53818 7.28087 6.48023 7.03571C6.45753 6.94438 6.42975 6.86907 6.36753 6.80444L6.3686 6.80337C6.40625 6.78548 6.50373 6.85732 6.51868 6.81192C6.49572 6.69495 6.4164 6.53765 6.3264 6.45726C6.24789 6.38596 6.16216 6.37768 6.09032 6.44284C6.00914 6.48798 5.99205 6.65008 6.03104 6.79189C6.0743 6.89871 6.19154 6.91741 6.27486 7.13239V7.13346C6.27673 7.14681 6.30344 7.29396 6.26151 7.35324C6.22732 7.45953 5.78961 7.80484 5.75864 7.82567C5.7577 7.82635 5.75672 7.82698 5.7557 7.82754L5.75463 7.82861L5.75356 7.82968L5.75249 7.83075H5.75036L5.74956 7.82968V7.82861L5.74849 7.82674C5.74715 7.81819 5.74956 7.79629 5.74849 7.76078C5.74555 7.69615 5.77226 7.5498 5.77039 7.5247V7.52363L5.76959 7.52256V7.52149H5.76852C5.62377 7.61496 5.57597 7.90152 5.54953 7.98617C5.18313 8.23935 4.76705 8.42762 4.5275 8.68426C4.40278 8.87922 5.38743 8.46047 5.50173 8.40973L5.50466 8.41267C5.5263 8.4367 5.52816 8.52002 5.59359 8.59533C5.69588 8.73394 5.91353 8.8194 6.12531 8.76652C6.48023 8.63833 6.68479 8.39611 6.8931 8.12771C6.92274 8.08445 6.96948 8.05027 7.01274 8.08365C7.15589 8.40412 7.56849 8.63192 8.10181 8.65542C8.22519 8.50533 8.16617 8.43163 8.11623 8.40011C8.10074 8.38997 7.85104 8.29249 7.81205 8.19555C7.78775 8.10528 7.84703 8.02516 7.96587 7.96508C8.30824 7.92368 8.645 7.87775 8.97081 7.77279C8.97402 7.6633 9.03865 7.49959 9.08164 7.42856C9.11129 7.38102 9.13051 7.37621 9.13772 7.36927ZM8.2364 6.68293C8.23725 6.67958 8.23851 6.67635 8.24014 6.67331C8.24068 6.67225 8.24121 6.67038 8.24201 6.66958L8.24281 6.66851C8.24428 6.66677 8.24589 6.66517 8.24762 6.6637C8.25575 6.65775 8.26536 6.65415 8.27539 6.65329C8.30544 6.65228 8.33511 6.66028 8.36059 6.67625C8.40412 6.70136 8.43082 6.73954 8.42762 6.76705V6.76999L8.42575 6.77293L8.42468 6.77587L8.42361 6.77773L8.42254 6.7796C8.42097 6.78206 8.41908 6.78431 8.41694 6.78628C8.3961 6.80578 8.34777 6.8031 8.3021 6.77667C8.25884 6.75183 8.2324 6.71337 8.23507 6.68587C8.2356 6.68506 8.2364 6.68373 8.2364 6.68293ZM7.7995 7.7776C7.68226 7.81766 7.56956 7.84917 7.56903 8.01849C7.58451 8.10234 7.58104 8.14641 7.56822 8.1667L7.56448 8.17151L7.56342 8.17258L7.56235 8.17365L7.56155 8.17472L7.56048 8.17579L7.55861 8.17685C7.55674 8.17799 7.55477 8.17897 7.55273 8.17979L7.54713 8.18086C7.51935 8.18487 7.47876 8.15843 7.44858 8.14267C7.37621 8.09086 7.17351 7.96508 7.1444 7.69508C7.1404 7.63419 7.1858 7.58158 7.25924 7.57651H7.27152C7.3933 7.60962 7.57276 7.61309 7.72846 7.62912C7.85558 7.63633 7.91834 7.73594 7.7995 7.7776Z" fill="white"/>
<path d="M7.43196 6.72098C7.55774 6.78107 7.85765 6.74555 7.78474 6.55166C7.78351 6.52009 7.78128 6.48856 7.77807 6.45712C7.76525 6.42721 7.74148 6.416 7.71878 6.41974C7.69608 6.42374 7.67418 6.44244 7.66617 6.47315C7.6611 6.49344 7.67578 6.52709 7.65762 6.53724C7.64721 6.54792 7.60635 6.54178 7.60795 6.4857C7.60795 6.46781 7.59487 6.44831 7.58685 6.43683C7.57884 6.43149 7.57457 6.43015 7.56015 6.43015C7.54252 6.43095 7.54199 6.43549 7.53237 6.45018C7.52837 6.46514 7.52276 6.48009 7.52276 6.49692C7.52062 6.51695 7.51368 6.52362 7.49899 6.52656C7.4827 6.52656 7.48644 6.52843 7.47309 6.51988C7.46508 6.51134 7.45493 6.50787 7.45493 6.49318C7.45511 6.47631 7.45249 6.45952 7.44718 6.4435C7.44024 6.43442 7.42822 6.43042 7.41567 6.42721C7.34704 6.42748 7.34276 6.50546 7.34677 6.53537C7.34169 6.54098 7.33822 6.68199 7.43196 6.72098ZM11.9722 11.9521C11.8972 11.9633 11.6862 11.9847 11.6862 11.9847C11.4424 11.9556 11.2634 11.9527 10.9892 11.9425C11.0145 11.9105 11.0591 11.7801 11.0044 11.7331C10.9902 11.7214 10.9689 11.7147 10.9395 11.7168H10.9366L10.9355 11.7158L10.9326 11.7147C10.9308 11.7133 10.9291 11.7117 10.9278 11.7099L10.9259 11.708C10.912 11.6877 10.9045 11.6383 10.8952 11.6258L10.8941 11.6247L10.8933 11.6236L10.8914 11.6226H10.8893L10.8885 11.6234C10.7072 11.6698 10.7128 11.8581 10.8292 11.9409C8.91413 11.9409 5.97489 11.9083 5.34463 11.9083C4.99211 11.9083 3.87635 11.8661 3.85498 11.8661C4.09426 12.216 4.44091 12.2873 4.89437 12.2945C5.74495 12.2945 9.68647 12.2841 10.8081 12.2841C10.7283 12.4256 10.8153 12.6534 10.8778 12.6953L10.8826 12.6983C10.885 12.6993 10.888 12.7007 10.8904 12.7012H10.8933C10.9675 12.7188 11.0001 12.6649 11.0252 12.6256C11.1457 12.6363 11.8237 12.6459 11.8857 12.6246L11.8868 12.6235C11.9287 12.6852 11.9703 12.7437 12.0502 12.7335C12.1899 12.7036 12.3002 12.6884 12.3036 12.4045C12.3039 12.4053 12.2895 11.9219 11.9722 11.9521ZM11.8355 12.4705L11.8307 12.4723H11.8232L11.589 12.4657C11.5891 12.4611 11.5884 12.4566 11.5871 12.4523C11.5655 12.3885 11.4095 12.3928 11.3729 12.4427L11.3711 12.4456L11.3692 12.4494L11.3673 12.4542L11.3663 12.4609C11.366 12.4633 11.3652 12.4662 11.3652 12.4686C11.2426 12.4833 11.1321 12.4646 11.0095 12.4601C10.9734 12.4152 10.9777 12.3343 11.0199 12.3148H11.0207C11.3 12.3284 11.5626 12.3175 11.8422 12.3311C11.8865 12.3685 11.8643 12.4547 11.8355 12.4705ZM8.55494 8.58852C8.55494 8.59332 8.60408 8.63552 8.66203 8.60187C8.78408 8.5554 8.86019 8.51 9.03111 8.47288C9.07597 8.47208 9.0733 8.3519 9.00253 8.34763C8.90986 8.35217 8.8244 8.35698 8.732 8.42988C8.67512 8.44297 8.66524 8.40825 8.65268 8.37727C8.63826 8.30009 8.68526 8.24588 8.67565 8.18793C8.67832 8.1906 8.64681 8.16229 8.60675 8.16016C8.59218 8.15923 8.57762 8.16218 8.56455 8.1687C8.56162 8.1687 8.43583 8.25389 8.39524 8.31318C8.3704 8.33187 8.37334 8.34843 8.38082 8.38101C8.40005 8.42534 8.43396 8.41146 8.47269 8.39063C8.52396 8.38368 8.54853 8.41706 8.54453 8.47849C8.52076 8.5554 8.55494 8.58371 8.55494 8.58852ZM12.7774 8.55807C12.7536 8.53083 12.6997 8.54712 12.6636 8.54285C12.6465 8.54285 12.5899 8.53457 12.6169 8.48463C12.6393 8.45365 12.6476 8.43496 12.6628 8.39677C12.6799 8.35938 12.665 8.33401 12.6035 8.31371C12.5787 8.30867 12.5533 8.30643 12.528 8.30704C12.5053 8.30784 12.4812 8.31078 12.4468 8.31371C12.4094 8.32173 12.3963 8.33802 12.3894 8.38342C12.392 8.45232 12.4342 8.44885 12.4772 8.47609C12.5023 8.50787 12.5184 8.53671 12.4754 8.58878C12.4345 8.62617 12.4054 8.647 12.3645 8.68439C12.3453 8.71724 12.3333 8.76798 12.3923 8.78374C12.5013 8.81445 12.7536 8.65047 12.7536 8.647C12.7945 8.61629 12.7809 8.55807 12.7774 8.55807ZM10.8279 8.23226C10.9155 8.2328 11.017 8.0317 11.0602 7.83247C11.084 7.55821 11.0445 7.39129 11.0372 7.22999C11.03 7.06869 10.8548 5.7609 10.8193 5.63886C10.7763 5.40812 10.99 5.60841 10.9665 5.47435C10.8928 5.3053 10.7085 5.05907 10.6511 4.91219C10.6294 4.87293 10.6268 4.83635 10.6089 4.83955C10.5982 4.84142 10.5824 4.85771 10.5533 4.8959C10.4815 5.13118 10.4561 5.32346 10.4836 5.46954C10.6687 6.43496 10.8581 7.31385 10.8279 8.23226Z" fill="white"/>
<path d="M13.5613 5.67815C13.553 5.61726 13.5261 5.47732 13.5365 5.45916C13.5533 5.41643 13.6374 5.46344 13.6676 5.4143C13.7117 5.36943 13.4497 5.03374 13.3578 4.89033C13.3394 4.85427 13.3282 4.82463 13.3119 4.82623C13.2993 4.82757 13.2838 4.84787 13.2603 4.8978C13.2034 4.99074 13.184 5.15712 13.2067 5.30427C13.3434 6.22829 13.4449 7.1232 13.4657 7.94227C13.4539 8.01998 13.4505 8.06138 13.4142 8.15939C13.3335 8.26274 13.2446 8.39226 13.1607 8.45476C13.0769 8.51725 12.8987 8.5768 12.8402 8.623C12.6554 8.72983 12.6544 8.85294 12.8039 8.85721C13.0616 8.8273 13.3664 8.8062 13.5765 8.48921C13.6326 8.40028 13.6988 8.15939 13.7018 8.01197C13.7215 7.14777 13.6908 6.3028 13.5613 5.67815ZM11.858 7.71794C11.8973 7.73904 12.0003 7.61219 11.9966 7.45302C12.0081 7.3713 11.9675 7.07006 11.8647 7.01878C11.8525 7.01553 11.8398 7.01453 11.8273 7.01585C11.7736 7.02252 11.7226 7.07326 11.7461 7.15445C11.7314 7.20225 11.819 7.3689 11.8417 7.45756C11.8623 7.52085 11.8155 7.69898 11.858 7.71794ZM3.74317 5.15899C3.86896 5.21908 4.10504 5.19371 4.09516 4.99074C4.09418 4.95918 4.09222 4.92765 4.08928 4.8962C4.07646 4.86629 4.05296 4.85508 4.03026 4.85908C4.00756 4.86309 3.98566 4.88178 3.97765 4.91249C3.97258 4.93279 3.98646 4.96644 3.96804 4.97659C3.95762 4.98727 3.91756 4.98006 3.91916 4.92398C3.91916 4.90608 3.90608 4.88739 3.89807 4.87617C3.89006 4.8711 3.88471 4.8695 3.87029 4.8695C3.85267 4.8703 3.8532 4.87484 3.84359 4.88953C3.83931 4.90448 3.83371 4.91917 3.83371 4.93626C3.83157 4.95629 3.82356 4.96297 3.80887 4.96591C3.79258 4.96591 3.79632 4.96778 3.78296 4.95923C3.77522 4.95068 3.76587 4.94721 3.76587 4.93252C3.76568 4.91562 3.7628 4.89885 3.75733 4.88285C3.75038 4.87377 3.73943 4.86896 3.72661 4.86576C3.65798 4.86603 3.65291 4.94507 3.65691 4.97472C3.65211 4.98006 3.64943 5.12 3.74317 5.15899ZM5.64436 5.81595C5.62318 5.81564 5.60244 5.82199 5.58507 5.83411C5.47371 5.8942 5.43071 6.07286 5.49988 6.17728C5.56451 6.26942 5.66706 6.2355 5.68068 6.2355C5.78964 6.24912 5.8548 6.03093 5.8548 6.03093C5.8548 6.03093 5.85801 5.96951 5.72848 6.08541C5.674 6.09556 5.66653 6.07607 5.65291 6.04535C5.63994 5.98795 5.64594 5.92788 5.67 5.87417C5.68228 5.84025 5.67027 5.81862 5.64436 5.81595ZM10.1707 8.03601C9.9683 8.24725 9.67667 8.5079 9.35888 8.62781C9.32469 8.66627 9.4438 8.82971 9.59789 8.82944C9.8556 8.79953 10.0821 8.65478 10.292 8.27396C10.3481 8.18503 10.4469 7.99488 10.4498 7.84747C10.4696 6.98326 10.4063 6.31135 10.2768 5.6867C10.2685 5.62581 10.2741 5.55397 10.2845 5.53554C10.3011 5.51551 10.3577 5.53607 10.3879 5.48667C10.4319 5.4418 10.2703 5.06899 10.1785 4.92531C10.1601 4.88926 10.1488 4.86068 10.1325 4.86229C10.12 4.86362 10.1045 4.88312 10.081 4.93306C10.0244 5.02599 9.98566 5.18783 9.9902 5.33952C10.113 6.19064 10.1507 6.93519 10.2311 7.78631C10.2375 7.86883 10.2255 7.98821 10.1707 8.03601ZM3.16366 6.76C2.86135 6.76561 2.4191 7.15605 2.40735 7.3729C2.72621 7.21988 3.03947 7.07246 3.36342 6.91383C3.31107 6.83585 3.36021 6.76561 3.16366 6.76ZM2.57773 8.36342C2.49815 8.52473 2.4653 8.41443 2.45809 8.32416C2.4458 8.15325 2.46236 7.99568 2.48106 7.87097C2.49094 7.80714 2.49067 7.78471 2.48292 7.78497C2.47545 7.78524 2.45996 7.80794 2.43993 7.83385C2.2602 8.12013 2.24417 8.54769 2.34325 8.67535C2.39586 8.7357 2.48292 8.76214 2.54702 8.74318C2.65998 8.69431 2.70966 8.46544 2.68268 8.38185C2.64503 8.32256 2.61539 8.31322 2.57773 8.36342Z" fill="white"/>
<path d="M2.61306 6.49902C2.98026 6.53427 2.77757 5.8781 2.91056 5.759C2.93566 5.70024 2.98213 5.69918 2.98614 5.77342V6.33077C2.98267 6.5121 3.10204 6.56578 3.19471 6.60317C3.29112 6.59569 3.35495 6.59836 3.3926 6.6921C3.40756 7.01337 3.42331 7.33544 3.43853 7.65698C3.43853 7.65698 3.66126 7.72107 3.67194 7.11485C3.68263 6.75886 3.60117 6.46029 3.64898 6.39112C3.65058 6.32302 3.73791 6.31982 3.798 6.35293C3.89387 6.42077 3.9366 6.50409 4.08588 6.47044C4.31288 6.40795 4.44962 6.29765 4.45309 6.12326C4.43974 5.95769 4.42051 5.79184 4.34894 5.626C4.35908 5.59582 4.30541 5.51758 4.31555 5.4874C4.35641 5.55123 4.4181 5.54588 4.43226 5.4874C4.39354 5.36001 4.33345 5.23797 4.23624 5.18535C4.15585 5.11458 4.03835 5.12954 3.99535 5.27722C3.97532 5.44734 4.05704 5.64897 4.18096 5.81374C4.2074 5.8781 4.24398 5.9852 4.22769 6.08134C4.16173 6.11899 4.09657 6.10323 4.04129 6.04502C4.04129 6.04502 3.86049 5.90962 3.86049 5.87971C3.90856 5.57259 3.8709 5.5376 3.8442 5.45241C3.8255 5.33491 3.76995 5.29752 3.72455 5.21714C3.67942 5.16933 3.618 5.16933 3.58889 5.21714C3.50904 5.35574 3.54643 5.65297 3.60411 5.78597C3.64577 5.90855 3.70987 5.98493 3.67969 5.98493C3.65485 6.0541 3.60331 6.03807 3.56592 5.95822C3.51278 5.79318 3.50183 5.54722 3.50183 5.43612C3.4858 5.29859 3.46791 5.00482 3.37765 4.93031C3.35361 4.89747 3.32504 4.88598 3.29726 4.88919C3.26174 4.89346 3.22836 4.9223 3.21207 4.96103C3.20425 5.09395 3.20711 5.22728 3.22062 5.35974C3.28257 5.58033 3.30234 5.77449 3.33251 6.00042C3.34079 6.30299 3.15786 6.13128 3.16614 5.98119C3.20833 5.78624 3.19711 5.47965 3.15946 5.40167C3.12955 5.32396 3.0951 5.30473 3.02272 5.31755C2.96531 5.31408 2.81656 5.47592 2.77516 5.74404C2.77516 5.74404 2.74044 5.88158 2.72549 6.00416C2.70519 6.14249 2.61332 6.2405 2.5495 5.98493C2.49422 5.79906 2.4603 5.34132 2.3679 5.44841C2.34093 5.80546 2.30941 6.43439 2.61306 6.49902Z" fill="white"/>
<path d="M2.73038 5.1523C2.74961 5.20037 2.71115 5.355 2.75148 5.36942C2.78833 5.38545 2.83934 5.26233 2.85857 5.14856C2.86925 5.08634 2.86124 4.87296 2.71623 4.82916C2.70867 4.8275 2.70099 4.82651 2.69326 4.82623C2.63771 4.82462 2.57655 4.85907 2.60059 4.92557C2.5867 4.96216 2.70902 5.08474 2.73038 5.1523ZM4.82759 7.93425C4.95845 7.49841 4.82492 7.16966 4.86872 7.12907L4.87059 7.128L4.87246 7.12693L4.87432 7.12586L4.87993 7.1248C5.0415 7.29892 5.26824 7.14696 5.31791 7.08661C5.33927 7.05643 5.39242 7.03693 5.42981 7.07619C5.55586 7.16672 5.77671 7.124 5.82292 6.96429C5.84962 6.80807 5.87205 6.6473 5.87739 6.48038C5.79541 6.50576 5.72918 6.52498 5.70247 6.55302C5.69624 6.55937 5.6919 6.56732 5.68992 6.57599L5.66882 6.71459C5.66814 6.71824 5.66688 6.72176 5.66508 6.72501C5.66117 6.73091 5.65597 6.73585 5.64986 6.73943C5.62075 6.75519 5.57028 6.74611 5.56761 6.70418C5.52862 6.52659 5.36785 6.50362 5.2701 6.77869C5.20441 6.83183 5.08477 6.84225 5.07221 6.7624C5.08824 6.57786 5.01373 6.55302 4.86471 6.64009C4.81691 6.27448 4.76937 5.92517 4.7213 5.55957C4.78352 5.5577 4.84041 5.60283 4.89729 5.53179C4.83587 5.34058 4.70581 4.95148 4.63237 4.91516L4.6305 4.91409C4.62737 4.91029 4.62388 4.9068 4.62008 4.90367L4.61528 4.89993L4.61047 4.897C4.60741 4.8954 4.60419 4.89415 4.60086 4.89326C4.59418 4.89139 4.58777 4.89059 4.58083 4.89139C4.56267 4.89379 4.54237 4.90421 4.5186 4.90955C4.44062 4.93438 4.36745 5.00195 4.39041 5.13334C4.48282 5.69417 4.5429 6.12226 4.63504 6.68335C4.64919 6.74905 4.59418 6.83557 4.52314 6.82676C4.40243 6.74504 4.37252 6.57973 4.16662 6.58667C4.0176 6.58854 3.84748 6.75065 3.82612 6.90688C3.80128 7.03106 3.79247 7.16566 3.82612 7.27408C3.93081 7.40013 4.05659 7.38678 4.16662 7.35821C4.25715 7.32108 4.33166 7.23162 4.36344 7.25299H4.36451V7.25405C4.38427 7.2885 4.36264 7.5804 3.93802 7.8058C3.6771 7.92303 3.46933 7.95108 3.3577 7.73796C3.28853 7.6047 3.36277 7.09782 3.19239 7.21506C2.68819 8.5143 4.37332 8.6959 4.5616 7.26847C4.57388 7.22815 4.61101 7.18782 4.63718 7.1977C4.64866 7.20251 4.65908 7.21827 4.66308 7.24738C4.62409 8.53967 3.35957 8.62834 3.14459 8.22161C3.09144 8.12573 3.07542 7.91262 3.07008 7.7847C3.06046 7.70725 3.04097 7.66265 3.01854 7.64503C2.96726 7.60657 2.89836 7.70698 2.88367 7.88111C2.86231 8.02131 2.86845 8.05977 2.86845 8.19463C2.93575 9.21586 4.56293 8.77735 4.82759 7.93425ZM4.19893 7.05109V7.05216C4.19867 7.05269 4.1984 7.05376 4.19787 7.05403C4.18531 7.07032 4.14072 7.06364 4.10894 7.06364C4.07048 7.06204 4.05178 7.05563 4.02855 7.02438C4.0176 6.98966 4.05098 6.95548 4.06594 6.92984L4.06674 6.92878C4.06873 6.926 4.07097 6.92341 4.07342 6.92103C4.09161 6.90556 4.1147 6.89705 4.13858 6.897C4.16822 6.89726 4.19947 6.91195 4.21603 6.95335C4.2221 6.96969 4.22372 6.98736 4.22072 7.00453C4.21772 7.02171 4.2102 7.03778 4.19893 7.05109ZM9.57963 6.07633C9.70541 6.13641 9.94256 6.10998 9.93241 5.90701C9.93117 5.87544 9.92894 5.84391 9.92573 5.81247C9.91291 5.78256 9.88914 5.77135 9.86645 5.77508C9.84375 5.77909 9.82185 5.79858 9.81383 5.82956C9.80876 5.84986 9.82345 5.88244 9.80529 5.89259C9.79487 5.90327 9.75401 5.89713 9.75562 5.84105C9.75562 5.82315 9.74253 5.80366 9.73452 5.79218C9.72651 5.7871 9.72117 5.7855 9.70674 5.7855C9.68912 5.7863 9.68965 5.79084 9.68004 5.80553C9.67603 5.82048 9.67042 5.83544 9.67042 5.85226C9.66829 5.87229 9.66134 5.87897 9.64666 5.88191C9.63037 5.88191 9.6333 5.88378 9.61995 5.87523C9.61194 5.86669 9.60286 5.86321 9.60286 5.84852C9.60267 5.83162 9.59978 5.81485 9.59431 5.79885C9.58737 5.78977 9.57642 5.78577 9.5636 5.78256C9.49497 5.78283 9.49096 5.86081 9.4947 5.89072C9.48936 5.8966 9.48589 6.0376 9.57963 6.07633ZM9.66455 5.28957C9.70941 5.41536 9.63037 5.53527 9.6771 5.55262C9.7201 5.57212 9.77992 5.42283 9.80235 5.28503C9.82826 5.1734 9.74867 4.94507 9.63597 4.8978C9.6272 4.89587 9.61825 4.89488 9.60927 4.89486C9.54491 4.89299 9.47334 4.93358 9.50111 5.0145C9.48482 5.0583 9.63971 5.20758 9.66455 5.28957Z" fill="white"/>
<path d="M4.9779 5.89484H4.97897L4.98003 5.8959H4.9811L4.98217 5.89697C5.00594 5.913 5.3005 5.91273 5.33309 5.89804L5.33389 5.89697H5.33495V5.8959C5.43617 5.85852 5.91634 5.30971 5.91634 5.30971C5.8915 5.28835 5.86854 5.27259 5.8437 5.25149C5.81699 5.22853 5.81967 5.20583 5.8437 5.18259C5.96254 5.11342 5.92489 4.9612 5.86293 4.89203C5.8181 4.87116 5.76892 4.86136 5.71952 4.86346C5.67943 4.86564 5.64027 4.87638 5.60468 4.89497C5.52136 4.97482 5.5016 5.10301 5.56729 5.18286C5.63112 5.21304 5.69495 5.2774 5.65249 5.31292C5.47169 5.506 5.00113 5.82861 4.97736 5.88763L4.97656 5.8895V5.89243L4.97736 5.8943L4.9779 5.89484ZM5.68987 5.03437L5.69548 5.03331C5.72486 5.03037 5.76038 5.05734 5.77774 5.09553C5.79616 5.13612 5.78708 5.17511 5.75664 5.18259C5.72646 5.19007 5.6872 5.1631 5.66878 5.12224C5.65035 5.08164 5.6597 5.04185 5.68987 5.03437ZM8.49826 5.33802C8.70918 5.62038 8.91257 5.90828 9.10822 6.20142C9.13893 6.42041 9.16163 6.63459 9.17605 6.8477C9.20783 7.31532 9.21745 7.89751 9.18861 8.38996C9.2762 8.39343 9.41667 8.24842 9.46581 8.03611C9.49786 7.74235 9.45433 7.14333 9.45139 6.97001C9.44862 6.88745 9.44479 6.80492 9.43991 6.72245C9.67902 7.11309 9.90133 7.51378 10.1062 7.92341C10.1853 7.88576 10.1679 7.44004 10.1214 7.37754C9.94759 7.0034 9.7075 6.63405 9.63085 6.49225C9.60335 6.44097 9.50908 6.29783 9.39745 6.13279C9.37688 5.89724 9.35445 5.69775 9.34003 5.63739C9.30424 5.38849 9.44231 5.66543 9.42335 5.52069C9.37848 5.27206 9.24122 5.10301 9.07911 4.87521C9.02677 4.80123 9.02784 4.78601 8.94719 4.89337C8.89885 5.00286 8.89965 5.09393 8.9138 5.17912C8.88725 5.1402 8.85882 5.10259 8.82861 5.06642C8.68867 4.94625 8.68013 4.93984 8.56369 4.84183C8.5271 4.81592 8.4574 4.77586 8.40399 4.78067C8.37194 4.78361 8.34657 4.8023 8.33696 4.84957C8.32414 4.96067 8.33081 5.02102 8.34951 5.11342C8.3642 5.17511 8.45393 5.2782 8.49826 5.33802ZM8.94478 5.32119C8.95012 5.34523 8.95546 5.36927 8.9592 5.39384C8.97122 5.44671 8.98164 5.49932 8.99258 5.55167C8.96033 5.50596 8.92658 5.46134 8.89137 5.41787C8.78642 5.29315 8.89351 5.33588 8.94478 5.32119Z" fill="white"/>
<path d="M6.35328 6.21578C6.50016 6.27667 6.59336 5.99706 6.65345 5.69075C6.69458 5.60475 6.72609 5.59487 6.74719 5.6392C6.74185 6.0462 6.7763 6.13727 6.88099 6.26065C7.11439 6.44091 7.30748 6.28335 7.3227 6.26839L7.5043 6.08679C7.54489 6.04433 7.5983 6.04166 7.65545 6.07905C7.711 6.12952 7.70379 6.21658 7.8229 6.27694C7.92305 6.317 8.13669 6.28655 8.18637 6.20056C8.25313 6.08626 8.26915 6.047 8.30013 6.00347C8.34767 5.94018 8.42912 5.96822 8.42912 5.98825C8.42165 6.0235 8.37357 6.05849 8.40616 6.12205C8.46277 6.16451 8.47586 6.13727 8.50951 6.12765C8.62808 6.07104 8.71701 5.81413 8.71701 5.81413C8.72235 5.71825 8.66761 5.72546 8.63289 5.74523C8.58749 5.773 8.58455 5.78235 8.53915 5.81012C8.4812 5.81867 8.36903 5.85686 8.31349 5.77086C8.25687 5.66751 8.25634 5.5233 8.21307 5.41888C8.21307 5.4114 8.13723 5.25491 8.20746 5.24476C8.24272 5.25144 8.31883 5.27093 8.33085 5.20737C8.36797 5.14541 8.25073 4.96996 8.17114 4.88129C8.10198 4.80545 8.00637 4.7961 7.91397 4.87355C7.84907 4.9331 7.85869 4.9996 7.84613 5.06289C7.82958 5.13527 7.83278 5.22526 7.90649 5.32114C7.97112 5.44852 8.08862 5.61223 8.0499 5.84324C8.0499 5.84324 7.98153 5.95327 7.86162 5.93884C7.81168 5.92789 7.72996 5.90626 7.6867 5.58606C7.65385 5.34357 7.69498 5.00414 7.59216 4.84497C7.56893 4.78488 7.5489 4.72667 7.51578 4.73121C7.49575 4.73388 7.47145 4.75951 7.43727 4.8212C7.41297 4.88557 7.30801 4.98331 7.38386 5.18467C7.44581 5.31232 7.47118 5.51956 7.44314 5.75084C7.40015 5.81653 7.39053 5.83923 7.33418 5.90466C7.25513 5.98959 7.16941 5.96795 7.10371 5.93617C7.04229 5.89478 6.99395 5.87341 6.96591 5.74202C6.97098 5.53238 6.98327 5.18948 6.94481 5.11657C6.88846 5.00387 6.79526 5.0442 6.75547 5.07838C6.56425 5.25304 6.46998 5.54814 6.4123 5.78315C6.35942 5.95433 6.3028 5.90466 6.26328 5.83576C6.1666 5.74523 6.15993 5.03779 6.04322 5.15396C5.85602 5.68808 6.14978 6.27267 6.35328 6.21578Z" fill="white"/>
<path d="M7.18051 5.20631C7.25288 5.01109 7.25315 4.92777 7.25795 4.84498C7.24674 4.78195 7.21923 4.75151 7.18825 4.75418C7.15727 4.75685 7.12255 4.79317 7.09451 4.86314C7.07048 4.91628 7.04083 5.19482 7.04591 5.19482C7.02641 5.27761 7.13217 5.31286 7.18051 5.20631ZM6.425 5.16064C6.44281 5.14958 6.45813 5.13495 6.46999 5.11766C6.48185 5.10038 6.48999 5.08082 6.4939 5.06023C6.51099 4.97503 6.40417 5.10055 6.39055 5.00575C6.36678 4.91762 6.43488 4.88156 6.49951 4.79637C6.50084 4.75631 6.50164 4.72347 6.47574 4.72266C6.46399 4.7224 6.4461 4.72881 6.42126 4.74376C6.36544 4.78115 6.25435 4.89679 6.25114 5.02951C6.24767 5.10456 6.23352 5.10429 6.28266 5.15183C6.31817 5.2031 6.35343 5.19803 6.425 5.16064Z" fill="white"/>
</svg>
