<svg width="38" height="30" viewBox="0 0 38 30" fill="none" xmlns="http://www.w3.org/2000/svg">
<g clip-path="url(#clip0_1656_6537)">
<path d="M4.46786 16.4082H2.0273V18.6274H0.651367V20.3567H2.02812V23.9453C2.02812 25.4141 2.57636 26.2182 4.46623 26.2182C5.03163 26.2182 5.5905 26.1669 6.00557 26.0506V24.4175C5.79559 24.4632 5.55864 24.4648 5.34947 24.4648C4.60594 24.4648 4.46868 24.1706 4.46868 23.5292V20.3567H6.24579V18.6274H4.46868V16.4082H4.46786Z" fill="white"/>
<path d="M11.8676 20.6031V18.436C10.2751 18.3975 9.33713 19.1407 8.90899 20.1325C8.90899 19.7268 8.87958 18.8938 8.83791 18.6276H6.4668C6.4815 19.3091 6.4815 19.9922 6.4815 20.6736V26.1583H8.90818V23.4067C8.90818 21.2589 10.1313 20.575 11.8668 20.6031H11.8676Z" fill="white"/>
<path d="M15.7958 18.4229C12.9916 18.4229 11.5381 20.2813 11.5381 22.4026C11.5381 24.3172 12.6714 26.3624 15.8138 26.3624C18.278 26.3624 19.4317 25.1895 19.895 23.8554H17.4683C17.1889 24.3172 16.7567 24.593 15.8399 24.593C14.6903 24.593 14.017 23.8818 13.9541 22.9719H19.9742C19.9873 22.7306 19.9873 22.5935 19.9873 22.4035C19.9873 22.0539 19.9481 21.7035 19.8688 21.362L15.8514 18.4245C15.8326 18.4245 15.8146 18.4237 15.7958 18.4237V18.4229ZM13.9844 21.5135C14.0563 20.7727 14.5195 20.0905 15.7942 20.0905C17.1619 20.0905 17.4773 20.9387 17.5255 21.5135H13.9835H13.9844Z" fill="white"/>
<path d="M26.5996 18.6339L26.5816 18.6772L26.5277 18.609C26.1739 18.4872 25.7744 18.4238 25.3315 18.4238C24.9982 18.4238 24.7057 18.4575 24.4458 18.5144L20.3564 21.6668V26.1597H22.797V22.4028C22.797 21.0455 23.324 20.275 24.4565 20.275C25.5889 20.275 25.8871 21.0327 25.8871 21.8945V26.1597H28.34V21.5145C28.34 20.0594 27.7108 19.0492 26.5996 18.6347V18.6339Z" fill="white"/>
<path d="M37.4739 24.0399V15.3066H35.0333V19.1998C34.8127 18.9216 34.2032 18.4238 32.7055 18.4238C30.8067 18.4238 28.7534 19.9174 28.7534 22.4581C28.7534 24.8096 30.3459 26.3633 32.4784 26.3633C34.07 26.3633 34.6109 25.8679 35.0333 25.289C35.0464 25.5816 35.0611 25.936 35.093 26.1597H37.4886C37.4739 25.4582 37.4739 24.7422 37.4739 24.0407V24.0399ZM33.1925 24.5017C31.9489 24.5017 31.2495 23.5933 31.2495 22.4052C31.2495 21.2948 31.8844 20.2726 33.2007 20.2726C34.517 20.2726 35.093 21.1008 35.093 22.3947C35.093 23.6887 34.45 24.5017 33.1917 24.5017H33.1925Z" fill="white"/>
<path d="M27.713 14.0278L24.198 14.4856L24.7487 15.1791L20.3088 18.4943L16.5757 15.7636V18.0413L20.3088 20.7712L25.8183 16.5252L26.3788 17.2308L27.713 14.0278Z" fill="#00AAA5"/>
<path d="M7.96245 28.7452C7.96245 29.1445 7.72714 29.4668 7.29655 29.4668C6.88965 29.4668 6.64453 29.1621 6.64453 28.7509C6.64453 28.3396 6.88638 28.0293 7.31289 28.0293C7.70589 28.0293 7.96245 28.3147 7.96245 28.7452ZM6.92151 28.7485C6.92151 29.0427 7.06777 29.2495 7.30635 29.2495C7.54493 29.2495 7.68547 29.0515 7.68547 28.7493C7.68547 28.447 7.54902 28.2466 7.30063 28.2466C7.05224 28.2466 6.92151 28.439 6.92151 28.7477V28.7485Z" fill="#BCBEC0"/>
<path d="M8.65187 28.4079C8.65187 28.2892 8.65187 28.1674 8.64941 28.0623H8.91169C8.91823 28.1016 8.92231 28.2363 8.92231 28.278C8.97624 28.1666 9.09063 28.0303 9.35617 28.0303C9.62172 28.0303 9.82271 28.193 9.82271 28.5546V29.4357H9.55308V28.5875C9.55308 28.3903 9.47628 28.2564 9.2712 28.2564C9.0269 28.2564 8.92231 28.4327 8.92231 28.7021V29.4365H8.65268V28.4095L8.65187 28.4079Z" fill="#BCBEC0"/>
<path d="M10.7812 28.799C10.7828 29.0571 10.9152 29.2495 11.144 29.2495C11.3531 29.2495 11.4201 29.1469 11.4634 29.0499H11.7347C11.6808 29.2239 11.5304 29.4668 11.1358 29.4668C10.6921 29.4668 10.5083 29.118 10.5083 28.7637C10.5083 28.3508 10.7207 28.0293 11.1505 28.0293C11.6072 28.0293 11.7584 28.3821 11.7584 28.6843C11.7584 28.7268 11.7584 28.7613 11.7543 28.799H10.7804H10.7812ZM11.4863 28.6186C11.4839 28.4053 11.3777 28.2329 11.1481 28.2329C10.9185 28.2329 10.8122 28.3925 10.7894 28.6186H11.4863Z" fill="#BCBEC0"/>
<path d="M13.588 29.054C13.6313 29.2175 13.7522 29.3154 13.9565 29.3154C14.1828 29.3154 14.2735 29.2159 14.2735 29.0764C14.2735 28.9369 14.2081 28.8664 13.9197 28.7974C13.5455 28.7084 13.4597 28.597 13.4597 28.4158C13.4597 28.2346 13.6035 28.0454 13.9352 28.0454C14.267 28.0454 14.4157 28.2394 14.4361 28.431H14.2555C14.2326 28.3292 14.1526 28.1969 13.9279 28.1969C13.7032 28.1969 13.6444 28.302 13.6444 28.4014C13.6444 28.5152 13.7064 28.5721 13.9712 28.6347C14.3748 28.7293 14.4655 28.86 14.4655 29.0628C14.4655 29.3057 14.267 29.4677 13.9516 29.4677C13.6166 29.4677 13.4401 29.2977 13.4033 29.0548H13.5888L13.588 29.054Z" fill="#BCBEC0"/>
<path d="M14.9736 28.0774H15.2228V27.6646H15.4067V28.0774H15.7245V28.2338H15.4067V29.0756C15.4067 29.2183 15.4394 29.2969 15.5693 29.2969C15.6069 29.2969 15.6608 29.2945 15.7025 29.2824V29.4276C15.6502 29.4476 15.5766 29.4524 15.5145 29.4524C15.3201 29.4524 15.2228 29.3554 15.2228 29.1341V28.233H14.9736V28.0766V28.0774Z" fill="#BCBEC0"/>
<path d="M17.5145 28.7532C17.5145 29.1364 17.2947 29.4667 16.8771 29.4667C16.4931 29.4667 16.2578 29.1653 16.2578 28.7564C16.2578 28.3475 16.4841 28.0444 16.8919 28.0444C17.2669 28.0444 17.5145 28.3266 17.5145 28.7524V28.7532ZM16.4498 28.7556C16.4498 29.0666 16.6149 29.308 16.8878 29.308C17.1607 29.308 17.3224 29.0827 17.3224 28.7564C17.3224 28.4301 17.168 28.204 16.8829 28.204C16.5977 28.204 16.4506 28.4373 16.4506 28.7564L16.4498 28.7556Z" fill="#BCBEC0"/>
<path d="M18.4104 29.2488V29.9728H18.2266V28.4102C18.2266 28.2996 18.2266 28.1817 18.2241 28.0775H18.4039C18.4096 28.1264 18.4104 28.2082 18.4104 28.3076C18.4913 28.1568 18.6376 28.0454 18.881 28.0454C19.2046 28.0454 19.4334 28.3116 19.4334 28.7213C19.4334 29.2079 19.167 29.4669 18.8328 29.4669C18.5983 29.4669 18.4758 29.3675 18.4096 29.2488H18.4104ZM19.2422 28.7285C19.2422 28.4262 19.0967 28.2082 18.8402 28.2082C18.5273 28.2082 18.4006 28.4014 18.4006 28.7525C18.4006 29.1037 18.5019 29.3081 18.8214 29.3081C19.0935 29.3081 19.2422 29.0853 19.2422 28.7293V28.7285Z" fill="#BCBEC0"/>
<path d="M22.225 29.1592C22.225 29.2802 22.2356 29.3933 22.2446 29.4341H22.0681C22.0567 29.4029 22.0485 29.3411 22.0445 29.2393C21.9971 29.3355 21.8802 29.4662 21.6032 29.4662C21.2797 29.4662 21.1416 29.2602 21.1416 29.0557C21.1416 28.7551 21.3802 28.618 21.7928 28.618H22.0436V28.4897C22.0436 28.3614 22.0036 28.1955 21.7135 28.1955C21.4562 28.1955 21.4161 28.3254 21.3875 28.4336H21.207C21.2241 28.2668 21.3295 28.0431 21.7184 28.0439C22.0445 28.0439 22.2258 28.177 22.2258 28.4801V29.1584L22.225 29.1592ZM22.0453 28.7567H21.7961C21.5036 28.7567 21.332 28.8337 21.332 29.0477C21.332 29.2049 21.4447 29.3155 21.6278 29.3155C21.9946 29.3155 22.0453 29.075 22.0453 28.8032V28.7567Z" fill="#BCBEC0"/>
<path d="M24.1392 29.3292C24.1392 29.7637 23.9489 30.0002 23.5248 30.0002C23.1383 30.0002 22.9978 29.7877 22.9684 29.5913H23.1563C23.2021 29.7613 23.3434 29.8455 23.5322 29.8455C23.8712 29.8455 23.9603 29.6322 23.9603 29.3027V29.176C23.8859 29.3412 23.7544 29.4326 23.5117 29.4326C23.1808 29.4326 22.939 29.168 22.939 28.7583C22.939 28.3086 23.2029 28.0464 23.533 28.0464C23.8067 28.0464 23.9243 28.1731 23.9595 28.2733C23.9619 28.2027 23.966 28.1097 23.9693 28.0793H24.1433C24.1433 28.1418 24.1384 28.3414 24.1384 28.4721V29.33L24.1392 29.3292ZM23.1334 28.7495C23.1334 29.0558 23.2977 29.2714 23.5444 29.2714C23.8688 29.2714 23.9652 29.059 23.9652 28.7303C23.9652 28.4016 23.868 28.2059 23.5526 28.2059C23.2633 28.2059 23.1326 28.4481 23.1326 28.7503L23.1334 28.7495Z" fill="#BCBEC0"/>
<path d="M25.0396 28.7846C25.0421 29.1005 25.2039 29.3081 25.4555 29.3081C25.7072 29.3081 25.7775 29.1799 25.824 29.074H26.0103C25.9539 29.2504 25.8069 29.4669 25.449 29.4669C25.0217 29.4669 24.8525 29.1157 24.8525 28.7686C24.8525 28.3733 25.0535 28.0454 25.4653 28.0454C25.9 28.0454 26.0405 28.4022 26.0405 28.6724C26.0405 28.7116 26.0405 28.7485 26.0373 28.7846H25.0396ZM25.8526 28.6443C25.8502 28.3966 25.7162 28.1993 25.4612 28.1993C25.2063 28.1993 25.0756 28.3813 25.0486 28.6443H25.8526Z" fill="#BCBEC0"/>
<path d="M26.751 28.42C26.751 28.3013 26.751 28.1851 26.7485 28.0785H26.9283C26.934 28.1201 26.9373 28.2813 26.9356 28.3206C26.9937 28.1923 27.1072 28.0464 27.3842 28.0464C27.6359 28.0464 27.8475 28.1915 27.8475 28.5595V29.4358H27.6636V28.5852C27.6636 28.3599 27.5705 28.2115 27.3434 28.2115C27.0451 28.2115 26.9356 28.4464 26.9356 28.7319V29.4358H26.7518V28.4208L26.751 28.42Z" fill="#BCBEC0"/>
<path d="M29.7149 29.0283C29.652 29.2648 29.491 29.4669 29.1626 29.4669C28.8006 29.4669 28.5596 29.2071 28.5596 28.7622C28.5596 28.3853 28.7704 28.0454 29.1797 28.0454C29.5523 28.0454 29.6937 28.3052 29.7149 28.4888H29.5302C29.4918 28.3404 29.3946 28.2042 29.1756 28.2042C28.9044 28.2042 28.7516 28.431 28.7516 28.7557C28.7516 29.0804 28.897 29.3089 29.1642 29.3089C29.3529 29.3089 29.4649 29.2127 29.5294 29.0283H29.7149Z" fill="#BCBEC0"/>
<path d="M30.4814 28.0775C30.7355 28.7958 30.8573 29.1341 30.8998 29.2769H30.9022C30.9529 29.1165 31.0575 28.8038 31.3067 28.0775H31.4946L30.9848 29.5053C30.8409 29.9046 30.7396 29.9992 30.4749 29.9992C30.4283 29.9992 30.3867 29.9968 30.3376 29.9904V29.8236C30.376 29.8284 30.4153 29.8316 30.4569 29.8316C30.6449 29.8316 30.7102 29.7451 30.8025 29.4901L30.2788 28.0767H30.479L30.4814 28.0775Z" fill="#BCBEC0"/>
<path d="M32.4395 28.9395H37.426" stroke="#BCBEC0" stroke-width="1.22" stroke-miterlimit="10"/>
<path d="M0.715332 28.9395H5.70186" stroke="#BCBEC0" stroke-width="1.22" stroke-miterlimit="10"/>
<path d="M9.50733 18.3212C10.1544 17.9027 10.9658 17.6894 11.8858 17.7119C11.9046 17.7119 11.9234 17.7143 11.9422 17.7159V0.499512H8.14774C7.07493 1.68768 4.84191 3.39457 1.83594 4.10169V7.84979C2.96757 7.77523 5.60014 7.09776 6.88456 6.3738V17.9027H8.83815C9.13148 17.9027 9.38885 18.0711 9.50733 18.3212Z" fill="#00AAA5"/>
<path d="M15.8369 17.6998V15.7636C15.8369 15.4895 15.9946 15.2393 16.2438 15.1158C16.4938 14.9932 16.792 15.0188 17.0159 15.1824L20.3037 17.5868L20.9018 17.1402C20.4451 15.7059 20.2711 14.0391 20.2711 12.4485C20.2711 7.78882 21.5538 3.99102 25.4275 3.99102C29.3012 3.99102 30.3985 8.43101 30.3985 12.2994C30.3985 15.1928 30.0137 17.9564 28.6525 19.5606C28.6966 19.6488 28.7383 19.7386 28.775 19.8316C28.9818 19.5142 29.2277 19.2215 29.512 18.9594C30.3822 18.1584 31.5465 17.699 32.7051 17.699C33.3596 17.699 33.8809 17.7864 34.2943 17.9163V15.3075C34.2943 14.9074 34.6252 14.5827 35.0329 14.5827H35.5411C35.6163 13.8355 35.6522 13.0642 35.6522 12.2745C35.6531 5.59448 32.2255 0 25.4022 0C18.5789 0 14.9912 5.61212 14.9912 12.499C14.9912 14.3638 15.2339 16.1228 15.7208 17.6998C15.7462 17.6998 15.7707 17.6982 15.7952 17.6982C15.8091 17.6982 15.823 17.6982 15.8369 17.6982V17.6998Z" fill="#00AAA5"/>
</g>
<defs>
<clipPath id="clip0_1656_6537">
<rect width="36.8372" height="30" fill="white" transform="translate(0.651367)"/>
</clipPath>
</defs>
</svg>
