<svg width="17" height="16" viewBox="0 0 17 16" fill="none" xmlns="http://www.w3.org/2000/svg">
<g clip-path="url(#clip0_1656_6287)">
<path d="M0.84123 7.90403C0.840855 9.24834 1.19486 10.561 1.86798 11.7179L0.776855 15.6709L4.85386 14.6102C5.9815 15.2193 7.24495 15.5385 8.52886 15.5386H8.53223C12.7707 15.5386 16.2209 12.1164 16.2227 7.91005C16.2235 5.87179 15.4242 3.95513 13.9721 2.51315C12.5202 1.07129 10.5893 0.276809 8.53192 0.275879C4.29298 0.275879 0.843043 3.69789 0.841293 7.90403" fill="url(#paint0_linear_1656_6287)"/>
<path d="M0.566875 7.90177C0.566438 9.29445 0.933125 10.654 1.63025 11.8524L0.5 15.9471L4.72319 14.8484C5.88681 15.4779 7.19694 15.8098 8.53006 15.8103H8.5335C12.924 15.8103 16.4981 12.265 16.5 7.90809C16.5007 5.79659 15.6727 3.81104 14.1687 2.3174C12.6646 0.823938 10.6646 0.000868217 8.5335 0C4.14225 0 0.568625 3.54481 0.566875 7.90177ZM3.08194 11.646L2.92425 11.3976C2.26137 10.3518 1.9115 9.14326 1.912 7.90226C1.91337 4.28087 4.88363 1.33457 8.536 1.33457C10.3048 1.33532 11.967 2.01947 13.2172 3.26078C14.4674 4.5022 15.1554 6.15243 15.1549 7.9076C15.1533 11.529 12.183 14.4757 8.5335 14.4757H8.53088C7.34256 14.475 6.17712 14.1584 5.16075 13.56L4.91888 13.4177L2.41275 14.0696L3.08194 11.646Z" fill="url(#paint1_linear_1656_6287)"/>
<path d="M6.54223 4.59831C6.3931 4.26944 6.23616 4.2628 6.09435 4.25704C5.97823 4.25208 5.84548 4.25245 5.71285 4.25245C5.5801 4.25245 5.36441 4.302 5.1821 4.49952C4.9996 4.69722 4.48535 5.17499 4.48535 6.14671C4.48535 7.11843 5.19866 8.0576 5.2981 8.1895C5.39766 8.32116 6.67516 10.3791 8.69841 11.1708C10.3799 11.8287 10.7221 11.6978 11.087 11.6649C11.452 11.632 12.2648 11.1872 12.4306 10.726C12.5965 10.2649 12.5965 9.86956 12.5468 9.78696C12.497 9.70466 12.3643 9.65524 12.1652 9.55651C11.9662 9.45778 10.9875 8.97989 10.805 8.91397C10.6225 8.84811 10.4899 8.81524 10.3571 9.01301C10.2244 9.21046 9.84316 9.65524 9.72698 9.78696C9.61091 9.91899 9.49473 9.93542 9.29573 9.83663C9.09654 9.73753 8.45548 9.52922 7.69491 8.85642C7.10316 8.33288 6.70366 7.68637 6.58754 7.4886C6.47141 7.29115 6.5751 7.18411 6.67491 7.08569C6.76435 6.99719 6.87404 6.85505 6.97366 6.73977C7.07291 6.62442 7.10604 6.54212 7.17241 6.4104C7.23885 6.27856 7.2056 6.16321 7.15591 6.06442C7.10604 5.96563 6.71923 4.98882 6.54223 4.59831Z" fill="white"/>
</g>
<defs>
<linearGradient id="paint0_linear_1656_6287" x1="773.068" y1="1539.78" x2="773.068" y2="0.275879" gradientUnits="userSpaceOnUse">
<stop stop-color="#1FAF38"/>
<stop offset="1" stop-color="#60D669"/>
</linearGradient>
<linearGradient id="paint1_linear_1656_6287" x1="800.5" y1="1594.71" x2="800.5" y2="0" gradientUnits="userSpaceOnUse">
<stop stop-color="#F9F9F9"/>
<stop offset="1" stop-color="white"/>
</linearGradient>
<clipPath id="clip0_1656_6287">
<rect width="16" height="16" fill="white" transform="translate(0.5)"/>
</clipPath>
</defs>
</svg>
