<svg width="31" height="25" viewBox="0 0 31 25" fill="none" xmlns="http://www.w3.org/2000/svg">
<path d="M6.0707 24.2602C5.3719 24.2012 4.74478 23.8554 4.52977 23.1469C4.06391 23.8132 3.43679 24.2265 2.39756 24.2602C0.713292 24.2012 -0.00341797 23.0963 -0.00341797 22.0759C-0.00341797 21.924 0.0144998 21.7554 0.0592941 21.6036C0.202636 21.0469 0.776004 19.8999 2.42444 19.8999C3.75035 19.8999 4.84333 20.6505 4.84333 21.9831C4.84333 22.7421 4.77166 23.9229 6.0707 24.0409V24.2602ZM2.56778 24.0241C3.44575 24.0241 4.22517 23.4506 4.22517 22.1433C4.22517 20.8361 3.33824 20.0939 2.39756 20.0939C1.34937 20.0939 0.632662 20.718 0.632662 21.9156C0.632662 23.1891 1.45688 24.0241 2.56778 24.0241ZM2.33485 18.8204C2.33485 19.065 2.12879 19.259 1.86899 19.259C1.60918 19.259 1.40312 19.0734 1.40312 18.8204C1.40312 18.5674 1.61814 18.3818 1.86899 18.3818C2.11983 18.3818 2.33485 18.5758 2.33485 18.8204ZM3.46366 18.8204C3.46366 19.065 3.24865 19.259 2.9978 19.259C2.74695 19.259 2.53194 19.0734 2.53194 18.8204C2.53194 18.5674 2.738 18.3818 2.9978 18.3818C3.25761 18.3818 3.46366 18.5758 3.46366 18.8204Z" fill="#282828"/>
<path d="M6.07129 24.0326C7.20907 23.982 7.35241 22.9868 7.30761 22.2784C7.30761 22.2109 7.29865 22.1434 7.29865 22.0675C7.29865 21.1061 8.09599 19.8916 9.71755 19.8916C11.1778 19.8916 12.1364 20.7519 12.1364 21.9832C12.1364 22.5904 12.0827 23.4675 12.7367 23.8471C12.9248 23.9567 13.1488 24.0242 13.3548 24.0326V24.2519C12.6561 24.2013 12.0379 23.8471 11.8229 23.1386C11.7691 23.1977 11.7512 23.2651 11.7064 23.3157C11.2047 23.923 10.5418 24.2519 9.68171 24.2519C8.71416 24.2519 7.93473 23.8133 7.61221 23.1892C7.37928 23.8639 6.76112 24.2013 6.07129 24.2519V24.0326ZM9.93256 24.0326C10.1297 24.0326 10.3178 23.9736 10.5328 23.8977C10.918 23.7796 11.5093 23.3157 11.5093 22.1519C11.5093 20.8952 10.7389 20.1193 9.68171 20.1193C8.62457 20.1193 7.92578 20.7181 7.92578 21.9326C7.92578 23.3157 8.80374 24.041 9.93256 24.041V24.0326Z" fill="#282828"/>
<path d="M13.354 24.0322C13.569 24.0322 13.7751 23.9563 13.9722 23.8466C14.5366 23.5177 14.5724 22.8767 14.5724 22.2948V20.4141C14.5724 20.2201 14.5366 19.9924 14.2409 19.9924C14.0528 19.9924 14.0438 19.9924 14.0438 19.9418C14.0438 19.9249 14.0528 19.908 14.0797 19.8996C14.5455 19.8996 15.0024 19.8912 15.4593 19.8912C15.531 19.8912 15.5579 19.908 15.5579 19.9418C15.5579 20.043 15.1368 19.8912 15.1368 20.3044V21.4936C15.1368 22.784 15.1906 24.1081 13.354 24.243V24.0237V24.0322ZM13.5063 19.5622C13.5869 19.402 13.7572 19.2839 13.9363 19.2249C13.6138 19.1574 13.4346 18.8791 13.4346 18.5755C13.4346 18.196 13.7751 17.9092 14.1693 17.9092H15.0472C15.3877 17.9092 15.9162 17.9514 16.1313 17.5972C16.0596 17.6984 15.9521 18.002 15.6296 18.0779C15.3608 18.1454 14.4739 18.0948 13.9453 18.1201C13.7124 18.1201 13.6138 18.3731 13.6138 18.5333C13.6138 18.8201 13.7751 19.1068 14.0886 19.1659H16.194V19.2586H14.1961C13.9363 19.2586 13.7213 19.4189 13.5063 19.5622Z" fill="#282828"/>
<path d="M18.9456 24.2601C17.1986 24.1252 17.1628 22.9276 17.1628 21.6962V18.1793C17.1628 17.9179 17.1628 17.7576 17.0642 17.6733C17.0105 17.6311 16.7417 17.6227 16.7417 17.5637C16.7417 17.5299 16.7686 17.5215 16.8402 17.5215H18.1482C18.202 17.5215 18.2468 17.5215 18.2468 17.5637C18.2468 17.5805 18.2199 17.6058 18.193 17.6058C17.8257 17.6058 17.7361 17.6986 17.7361 17.9263C17.7361 19.1155 17.7272 21.3842 17.7272 22.295C17.7272 23.0203 17.8347 23.9565 18.9545 24.0324V24.2517L18.9456 24.2601Z" fill="#282828"/>
<path d="M22.823 19.8915C24.149 19.8915 25.2419 20.6421 25.2419 21.9746C25.2419 22.818 24.7761 23.6614 23.8891 24.0325H26.6933V24.2518H18.9438V24.0325H21.6673C20.7446 23.6024 20.4041 22.7674 20.4041 22.0674C20.4041 21.2999 21.0223 19.8915 22.832 19.8915H22.823ZM22.9574 24.0241C23.8264 24.0241 24.6148 23.4674 24.6148 22.1433C24.6148 20.8192 23.7816 20.0939 22.7872 20.0939C21.7928 20.0939 21.0313 20.718 21.0313 21.9156C21.0313 23.3156 21.963 24.0241 22.9664 24.0241H22.9574ZM22.7424 18.8204C22.7424 19.065 22.5364 19.259 22.2765 19.259C22.0167 19.259 21.8107 19.0734 21.8107 18.8204C21.8107 18.5674 22.0257 18.3818 22.2765 18.3818C22.5274 18.3818 22.7424 18.5758 22.7424 18.8204ZM23.8712 18.8204C23.8712 19.065 23.6562 19.259 23.4054 19.259C23.1545 19.259 22.9395 19.0734 22.9395 18.8204C22.9395 18.5674 23.1456 18.3818 23.4054 18.3818C23.6652 18.3818 23.8712 18.5758 23.8712 18.8204Z" fill="#282828"/>
<path d="M26.6934 24.0411C27.8043 23.9651 27.9207 23.029 27.9207 22.3037V20.7687C27.9207 20.6928 27.9207 18.2386 27.9207 18.188C27.9207 17.8506 27.9207 17.6904 27.7147 17.6482C27.6609 17.6313 27.4101 17.6398 27.4101 17.5807C27.4101 17.5386 27.4549 17.5386 27.5086 17.5386H28.8166C28.8883 17.5386 28.9152 17.547 28.9152 17.5807C28.9152 17.5976 28.8883 17.6229 28.8704 17.6229C28.5478 17.6229 28.4941 17.7326 28.4941 18.053V21.0808C28.4941 22.4808 28.727 24.117 26.7113 24.2688V24.0495L26.6934 24.0411Z" fill="#282828"/>
<path d="M29.9106 17.9347C29.9017 17.6817 29.7942 17.6143 29.5433 17.6143C29.5075 17.6143 29.4985 17.5974 29.4985 17.5805C29.4985 17.5552 29.5344 17.5215 29.5971 17.5215H30.9051C30.9588 17.5215 31.0036 17.5552 31.0036 17.5805C31.0036 17.5974 30.9857 17.6143 30.9588 17.6143C30.699 17.6143 30.5198 17.6311 30.5019 17.9347C30.4661 18.4323 30.484 18.9468 30.493 23.5938C30.493 24.1336 30.6094 24.1589 30.9588 24.1589C30.9947 24.1589 31.0036 24.1758 31.0036 24.1926C31.0036 24.2179 30.9678 24.2517 30.9051 24.2517H29.5971C29.5433 24.2517 29.4985 24.2179 29.4985 24.1926C29.4985 24.1758 29.5075 24.1589 29.5433 24.1589C29.8658 24.1505 29.9017 24.024 29.9196 23.7288V17.9347H29.9106Z" fill="#282828"/>
<path d="M29.7838 10.418H1.20744C0.538685 10.418 -0.00341797 10.9601 -0.00341797 11.6288C-0.00341797 12.2976 0.538685 12.8397 1.20744 12.8397H29.7838C30.4525 12.8397 30.9946 12.2976 30.9946 11.6288C30.9946 10.9601 30.4525 10.418 29.7838 10.418Z" fill="#282828"/>
<path d="M29.7838 0.730957H1.20744C0.538685 0.730957 -0.00341797 1.27306 -0.00341797 1.94182C-0.00341797 2.61058 0.538685 3.15268 1.20744 3.15268H29.7838C30.4525 3.15268 30.9946 2.61058 30.9946 1.94182C30.9946 1.27306 30.4525 0.730957 29.7838 0.730957Z" fill="#282828"/>
</svg>
