<svg width="25" height="24" viewBox="0 0 25 24" fill="none" xmlns="http://www.w3.org/2000/svg">
<path d="M21.1793 2H3.3793C3.08756 2 2.80777 2.11589 2.60148 2.32218C2.39519 2.52847 2.2793 2.80826 2.2793 3.1V20.9C2.2793 21.1917 2.39519 21.4715 2.60148 21.6778C2.80777 21.8841 3.08756 22 3.3793 22H12.9593V14.25H10.3593V11.25H12.9593V9C12.9054 8.47176 12.9678 7.93813 13.142 7.43654C13.3162 6.93495 13.5981 6.47755 13.9678 6.09641C14.3375 5.71528 14.7861 5.41964 15.2821 5.23024C15.7782 5.04083 16.3097 4.96225 16.8393 5C17.6176 4.99521 18.3956 5.03528 19.1693 5.12V7.82H17.5793C16.3193 7.82 16.0793 8.42 16.0793 9.29V11.22H19.0793L18.6893 14.22H16.0793V22H21.1793C21.3238 22 21.4668 21.9715 21.6002 21.9163C21.7337 21.861 21.855 21.78 21.9571 21.6778C22.0593 21.5757 22.1403 21.4544 22.1956 21.321C22.2508 21.1875 22.2793 21.0445 22.2793 20.9V3.1C22.2793 2.95555 22.2508 2.81251 22.1956 2.67905C22.1403 2.54559 22.0593 2.42433 21.9571 2.32218C21.855 2.22004 21.7337 2.13901 21.6002 2.08373C21.4668 2.02845 21.3238 2 21.1793 2Z" fill="white"/>
</svg>
