<svg width="24" height="23" viewBox="0 0 24 23" fill="none" xmlns="http://www.w3.org/2000/svg">
<path d="M16.8966 5.23234C16.6692 5.23234 16.4468 5.29978 16.2577 5.42615C16.0686 5.55251 15.9212 5.73212 15.8342 5.94225C15.7471 6.15239 15.7244 6.38361 15.7687 6.60669C15.8131 6.82977 15.9226 7.03468 16.0835 7.19551C16.2443 7.35634 16.4492 7.46587 16.6723 7.51024C16.8954 7.55461 17.1266 7.53184 17.3367 7.4448C17.5469 7.35776 17.7265 7.21036 17.8528 7.02124C17.9792 6.83213 18.0466 6.60979 18.0466 6.38234C18.0466 6.07734 17.9255 5.78483 17.7098 5.56916C17.4941 5.3535 17.2016 5.23234 16.8966 5.23234ZM21.305 7.5515C21.2863 6.75637 21.1374 5.96968 20.8641 5.22275C20.6205 4.58367 20.2412 4.00498 19.7525 3.5265C19.2779 3.03529 18.6979 2.65842 18.0562 2.42442C17.3113 2.14282 16.5237 1.9905 15.7275 1.974C14.7116 1.9165 14.3858 1.9165 11.7791 1.9165C9.17247 1.9165 8.84663 1.9165 7.8308 1.974C7.03457 1.9905 6.247 2.14282 5.50205 2.42442C4.86157 2.66079 4.28203 3.03733 3.8058 3.5265C3.31458 4.00105 2.93772 4.58109 2.70372 5.22275C2.42212 5.96771 2.26979 6.75528 2.2533 7.5515C2.1958 8.56734 2.1958 8.89317 2.1958 11.4998C2.1958 14.1065 2.1958 14.4323 2.2533 15.4482C2.26979 16.2444 2.42212 17.032 2.70372 17.7769C2.93772 18.4186 3.31458 18.9986 3.8058 19.4732C4.28203 19.9623 4.86157 20.3389 5.50205 20.5753C6.247 20.8568 7.03457 21.0092 7.8308 21.0257C8.84663 21.0832 9.17247 21.0832 11.7791 21.0832C14.3858 21.0832 14.7116 21.0832 15.7275 21.0257C16.5237 21.0092 17.3113 20.8568 18.0562 20.5753C18.6979 20.3413 19.2779 19.9644 19.7525 19.4732C20.2434 18.9965 20.623 18.4173 20.8641 17.7769C21.1374 17.03 21.2863 16.2433 21.305 15.4482C21.305 14.4323 21.3625 14.1065 21.3625 11.4998C21.3625 8.89317 21.3625 8.56734 21.305 7.5515ZM19.58 15.3332C19.573 15.9415 19.4628 16.5442 19.2541 17.1157C19.1011 17.5327 18.8554 17.9096 18.5354 18.2178C18.2245 18.5345 17.8485 18.7798 17.4333 18.9365C16.8618 19.1452 16.2591 19.2554 15.6508 19.2623C14.6925 19.3103 14.3379 19.3198 11.8175 19.3198C9.29705 19.3198 8.94247 19.3198 7.98413 19.2623C7.35249 19.2742 6.72354 19.1769 6.12497 18.9748C5.72801 18.8101 5.36918 18.5654 5.0708 18.2561C4.75272 17.9482 4.51003 17.5711 4.36163 17.154C4.12766 16.5744 3.99789 15.9579 3.9783 15.3332C3.9783 14.3748 3.9208 14.0203 3.9208 11.4998C3.9208 8.97942 3.9208 8.62484 3.9783 7.6665C3.9826 7.0446 4.09613 6.42828 4.31372 5.84567C4.48243 5.44117 4.74139 5.08059 5.0708 4.7915C5.36196 4.462 5.72179 4.2003 6.12497 4.02484C6.70912 3.81405 7.3248 3.70387 7.9458 3.699C8.90413 3.699 9.25872 3.6415 11.7791 3.6415C14.2996 3.6415 14.6541 3.6415 15.6125 3.699C16.2208 3.70598 16.8235 3.81616 17.395 4.02484C17.8305 4.18646 18.2213 4.44923 18.5354 4.7915C18.8494 5.08588 19.0948 5.44579 19.2541 5.84567C19.4671 6.42923 19.5774 7.04529 19.58 7.6665C19.6279 8.62484 19.6375 8.97942 19.6375 11.4998C19.6375 14.0203 19.6279 14.3748 19.58 15.3332ZM11.7791 6.58359C10.8072 6.58548 9.85764 6.87542 9.05043 7.41678C8.24322 7.95813 7.61458 8.72661 7.24395 9.6251C6.87332 10.5236 6.77733 11.5118 6.9681 12.4648C7.15888 13.4178 7.62786 14.2929 8.31579 14.9795C9.00372 15.6661 9.87973 16.1334 10.8331 16.3223C11.7865 16.5112 12.7745 16.4133 13.6723 16.0409C14.5701 15.6686 15.3373 15.0384 15.8771 14.2302C16.4169 13.4219 16.705 12.4718 16.705 11.4998C16.7062 10.8531 16.5796 10.2124 16.3324 9.61475C16.0852 9.01709 15.7223 8.4742 15.2645 8.0173C14.8067 7.56041 14.2631 7.19853 13.6649 6.95248C13.0668 6.70643 12.4259 6.58106 11.7791 6.58359ZM11.7791 14.6911C11.148 14.6911 10.531 14.5039 10.0062 14.1533C9.48137 13.8026 9.07234 13.3042 8.8308 12.7211C8.58927 12.138 8.52607 11.4963 8.6492 10.8773C8.77234 10.2582 9.07628 9.68959 9.52258 9.24328C9.96888 8.79698 10.5375 8.49304 11.1566 8.36991C11.7756 8.24677 12.4172 8.30997 13.0004 8.55151C13.5835 8.79305 14.0819 9.20208 14.4326 9.72687C14.7832 10.2517 14.9704 10.8687 14.9704 11.4998C14.9704 11.9189 14.8878 12.3339 14.7275 12.7211C14.5671 13.1083 14.332 13.4601 14.0357 13.7564C13.7394 14.0527 13.3876 14.2878 13.0004 14.4482C12.6132 14.6085 12.1982 14.6911 11.7791 14.6911Z" fill="white"/>
</svg>
